{"title":"The Hunger Games Mockingjay - Part 1 CAM ENG x264 AAC.avi","uid":11588417,"size":807245050,"categoryP":"video","categoryS":"movies","magnet":"?xt=urn:btih:f8b385460b1e12017bac8d57c568cb09db014426&amp;dn=The+Hunger+Games+Mockingjay+-+Part+1+CAM+ENG+x264+AAC.avi&amp;tr=udp%3A%2F%2Ftracker.openbittorrent.com%3A80&amp;tr=udp%3A%2F%2Fopen.demonii.com%3A1337&amp;tr=udp%3A%2F%2Ftracker.coppersurfer.tk%3A6969&amp;tr=udp%3A%2F%2Fexodus.desync.com%3A6969","seeders":7,"leechers":1,"uploader":"zloitoi","files":1,"time":1417199784,"description":"Screenshoot : \n &lt;a href=&quot;\nhttp://i.imgur.com/rS5CYbu.jpg?1&quot; rel=&quot;nofollow&quot; target=&quot;_NEW&quot;&gt;\nhttp://i.imgur.com/rS5CYbu.jpg?1&lt;/a&gt;\n\nGeneral\nFormat : AVI\nFormat/Info : Audio Video Interleave\nFile size : 770 MiB\nDuration : 1h 41mn\nOverall bit rate : 1 060 Kbps\nWriting application : MEncoder SVN-r33883(20110719-gcc4.5.2)\nWriting library : MPlayer\n\nVideo\nID : 0\nFormat : MPEG-4 Visual\nFormat profile : Advanced Simple@L5\nFormat settings, BVOP : Yes\nFormat settings, QPel : No\nFormat settings, GMC : No warppoints\nFormat settings, Matrix : Default (H.263)\nCodec ID : XVID\nCodec ID/Hint : XviD\nDuration : 1h 41mn\nBit rate : 920 Kbps\nWidth : 688 pixels\nHeight : 384 pixels\nDisplay aspect ratio : 16:9\nOriginal display aspect ratio : 16:9\nFrame rate : 23.976 fps\nColor space : YUV\nChroma subsampling : 4:2:0\nBit depth : 8 bits\nScan type : Progressive\nCompression mode : Lossy\nBits/(Pixel*Frame) : 0.145\nStream size : 668 MiB (87%)\nWriting library : XviD 1.2.1 (UTC 2008-12-04)\n\nAudio\nID : 1\nFormat : MPEG Audio\nFormat version : Version 1\nFormat profile : Layer 3\nMode : Joint stereo\nMode extension : MS Stereo\nCodec ID : 55\nCodec ID/Hint : MP3\nDuration : 1h 41mn\nBit rate mode : Constant\nBit rate : 128 Kbps\nChannel(s) : 2 channels\nSampling rate : 44.1 KHz\nCompression mode : Lossy\nDelay relative to video : 42ms\nStream size : 92.9 MiB (12%)\nAlignment : Aligned on interleaves\nInterleave, duration : 26 ms (0.63 video frame)\nInterleave, preload duration : 522 ms","torrent":{"xt":"urn:btih:f8b385460b1e12017bac8d57c568cb09db014426","amp;dn":"The+Hunger+Games+Mockingjay+-+Part+1+CAM+ENG+x264+AAC.avi","amp;tr":["udp%3A%2F%2Ftracker.openbittorrent.com%3A80","udp%3A%2F%2Fopen.demonii.com%3A1337","udp%3A%2F%2Ftracker.coppersurfer.tk%3A6969","udp%3A%2F%2Fexodus.desync.com%3A6969"],"infoHash":"f8b385460b1e12017bac8d57c568cb09db014426","infoHashBuffer":{"type":"Buffer","data":[248,179,133,70,11,30,18,1,123,172,141,87,197,104,203,9,219,1,68,38]},"announce":[],"urlList":[]}}